<mxfile host="app.diagrams.net" modified="2023-11-03T16:24:12.943Z" agent="Mozilla/5.0 (Windows NT 10.0; Win64; x64; rv:109.0) Gecko/20100101 Firefox/119.0" etag="RuMq35L_fl6acIr2GvQ3" version="22.0.8" type="google">
  <diagram name="Page-1" id="rh3G6_-PAPEWU3ZlsqPR">
    <mxGraphModel grid="1" page="1" gridSize="10" guides="1" tooltips="1" connect="1" arrows="1" fold="1" pageScale="1" pageWidth="850" pageHeight="1100" math="1" shadow="0">
      <root>
        <mxCell id="0" />
        <mxCell id="1" parent="0" />
        <mxCell id="vTeC7MxBw6ICrQF9Bca6-1" value="" style="ellipse;whiteSpace=wrap;html=1;strokeColor=#000000;" vertex="1" parent="1">
          <mxGeometry x="4230" y="-56" width="625" height="590" as="geometry" />
        </mxCell>
        <mxCell id="vTeC7MxBw6ICrQF9Bca6-30" value="&lt;div&gt;$$V_{environment}$$&lt;/div&gt;" style="ellipse;whiteSpace=wrap;html=1;aspect=fixed;fillColor=#FFFFFF;strokeColor=#080505;strokeWidth=1;" vertex="1" parent="1">
          <mxGeometry x="4362.5" y="110" width="80" height="80" as="geometry" />
        </mxCell>
        <mxCell id="vTeC7MxBw6ICrQF9Bca6-31" value="" style="shape=flexArrow;endArrow=classic;html=1;rounded=0;fillColor=#000000;width=0.3225806451612903;endSize=1.064804469273743;endWidth=2.980717246350694;" edge="1" parent="1" source="yWxi-8YTKczctsRbZgCD-3" target="mhnwT6YSPcjFCtgyug4Z-2">
          <mxGeometry width="50" height="50" relative="1" as="geometry">
            <mxPoint x="4472.5" y="229.5" as="sourcePoint" />
            <mxPoint x="4512.5" y="229.5" as="targetPoint" />
          </mxGeometry>
        </mxCell>
        <mxCell id="vTeC7MxBw6ICrQF9Bca6-48" value="&lt;div style=&quot;text-align: center; font-size: 48px;&quot;&gt;&lt;font style=&quot;font-size: 48px;&quot;&gt;Ammonia&lt;/font&gt;&lt;/div&gt;&lt;div style=&quot;text-align: center; font-size: 48px;&quot;&gt;&lt;font style=&quot;font-size: 48px;&quot;&gt;(ETCS Working Fluid)&lt;br&gt;&lt;/font&gt;&lt;/div&gt;" style="text;whiteSpace=wrap;html=1;fillColor=none;" vertex="1" parent="1">
          <mxGeometry x="4060" y="150" width="150" height="40" as="geometry" />
        </mxCell>
        <mxCell id="yWxi-8YTKczctsRbZgCD-3" value="&lt;font style=&quot;font-size: 14px;&quot;&gt;$$H_{temperature}$$&lt;/font&gt;" style="ellipse;whiteSpace=wrap;html=1;aspect=fixed;fillColor=#CCCCCC;strokeColor=#666666;strokeWidth=1;fontColor=#333333;" vertex="1" parent="1">
          <mxGeometry x="4492.5" y="150" width="80" height="80" as="geometry" />
        </mxCell>
        <mxCell id="yWxi-8YTKczctsRbZgCD-4" value="&lt;font style=&quot;font-size: 14px;&quot;&gt;$$F_{transfer\_heat}$$&lt;/font&gt;" style="ellipse;whiteSpace=wrap;html=1;aspect=fixed;fillColor=#A9C4EB;" vertex="1" parent="1">
          <mxGeometry x="4690" y="260" width="80" height="80" as="geometry" />
        </mxCell>
        <mxCell id="yWxi-8YTKczctsRbZgCD-12" value="&lt;font style=&quot;font-size: 10px;&quot;&gt;Foreign Contaminants&lt;/font&gt;" style="ellipse;whiteSpace=wrap;html=1;aspect=fixed;fillColor=#FFFFFF;strokeColor=#F19C99;strokeWidth=2;dashed=1;dashPattern=8 8;" vertex="1" parent="1">
          <mxGeometry x="4450" y="385" width="50" height="50" as="geometry" />
        </mxCell>
        <mxCell id="yWxi-8YTKczctsRbZgCD-13" value="" style="shape=flexArrow;endArrow=classic;html=1;rounded=0;width=0.3225806451612903;endSize=1.064804469273743;endWidth=2.980717246350694;strokeColor=#F19C99;" edge="1" parent="1" source="yWxi-8YTKczctsRbZgCD-12" target="yWxi-8YTKczctsRbZgCD-27">
          <mxGeometry width="50" height="50" relative="1" as="geometry">
            <mxPoint x="4347" y="37" as="sourcePoint" />
            <mxPoint x="4375" y="51" as="targetPoint" />
          </mxGeometry>
        </mxCell>
        <mxCell id="yWxi-8YTKczctsRbZgCD-15" value="" style="shape=flexArrow;endArrow=classic;html=1;rounded=0;fillColor=#000000;width=0.3225806451612903;endSize=1.064804469273743;endWidth=2.980717246350694;" edge="1" parent="1" source="vTeC7MxBw6ICrQF9Bca6-30" target="yWxi-8YTKczctsRbZgCD-3">
          <mxGeometry width="50" height="50" relative="1" as="geometry">
            <mxPoint x="4367.5" y="182" as="sourcePoint" />
            <mxPoint x="4484.9806448722475" y="115.68110549528092" as="targetPoint" />
            <Array as="points" />
          </mxGeometry>
        </mxCell>
        <mxCell id="yWxi-8YTKczctsRbZgCD-27" value="&lt;font style=&quot;font-size: 14px;&quot;&gt;$$H_{contamination}$$&lt;/font&gt;" style="ellipse;whiteSpace=wrap;html=1;aspect=fixed;fillColor=#CCCCCC;strokeColor=#666666;strokeWidth=1;fontColor=#333333;" vertex="1" parent="1">
          <mxGeometry x="4490" y="290" width="80" height="80" as="geometry" />
        </mxCell>
        <mxCell id="yWxi-8YTKczctsRbZgCD-32" value="" style="shape=flexArrow;endArrow=classic;html=1;rounded=0;fillColor=#000000;width=0.3225806451612903;endSize=1.064804469273743;endWidth=2.980717246350694;" edge="1" parent="1" source="yWxi-8YTKczctsRbZgCD-27" target="yWxi-8YTKczctsRbZgCD-4">
          <mxGeometry width="50" height="50" relative="1" as="geometry">
            <mxPoint x="4368" y="252" as="sourcePoint" />
            <mxPoint x="4391" y="220" as="targetPoint" />
          </mxGeometry>
        </mxCell>
        <mxCell id="mhnwT6YSPcjFCtgyug4Z-1" value="&lt;font style=&quot;font-size: 14px;&quot;&gt;$$H_{pressure}$$&lt;/font&gt;" style="ellipse;whiteSpace=wrap;html=1;aspect=fixed;fillColor=#CCCCCC;strokeColor=#666666;strokeWidth=1;fontColor=#333333;" vertex="1" parent="1">
          <mxGeometry x="4502.5" y="40" width="80" height="80" as="geometry" />
        </mxCell>
        <mxCell id="mhnwT6YSPcjFCtgyug4Z-2" value="&lt;font style=&quot;font-size: 14px;&quot;&gt;$$H_{state}$$&lt;/font&gt;" style="ellipse;whiteSpace=wrap;html=1;aspect=fixed;fillColor=#CCCCCC;strokeColor=#666666;strokeWidth=1;fontColor=#333333;" vertex="1" parent="1">
          <mxGeometry x="4642.5" y="90" width="80" height="80" as="geometry" />
        </mxCell>
        <mxCell id="mhnwT6YSPcjFCtgyug4Z-3" value="" style="shape=flexArrow;endArrow=classic;html=1;rounded=0;fillColor=#000000;width=0.3225806451612903;endSize=1.064804469273743;endWidth=2.980717246350694;" edge="1" parent="1" source="mhnwT6YSPcjFCtgyug4Z-1" target="mhnwT6YSPcjFCtgyug4Z-2">
          <mxGeometry width="50" height="50" relative="1" as="geometry">
            <mxPoint x="4564.5" y="146" as="sourcePoint" />
            <mxPoint x="4650.5" y="114" as="targetPoint" />
          </mxGeometry>
        </mxCell>
        <mxCell id="mhnwT6YSPcjFCtgyug4Z-4" value="" style="shape=flexArrow;endArrow=classic;html=1;rounded=0;fillColor=#000000;width=0.3225806451612903;endSize=1.064804469273743;endWidth=2.980717246350694;" edge="1" parent="1" source="mhnwT6YSPcjFCtgyug4Z-2" target="yWxi-8YTKczctsRbZgCD-4">
          <mxGeometry width="50" height="50" relative="1" as="geometry">
            <mxPoint x="4602" y="176" as="sourcePoint" />
            <mxPoint x="4688" y="144" as="targetPoint" />
          </mxGeometry>
        </mxCell>
        <mxCell id="mhnwT6YSPcjFCtgyug4Z-7" value="" style="endArrow=classic;startArrow=classic;html=1;rounded=0;" edge="1" parent="1" source="yWxi-8YTKczctsRbZgCD-3" target="mhnwT6YSPcjFCtgyug4Z-1">
          <mxGeometry width="50" height="50" relative="1" as="geometry">
            <mxPoint x="4622.5" y="250" as="sourcePoint" />
            <mxPoint x="4672.5" y="200" as="targetPoint" />
          </mxGeometry>
        </mxCell>
      </root>
    </mxGraphModel>
  </diagram>
</mxfile>
